<?xml version="1.0" encoding="UTF-8" standalone="no"?>
<!-- Created with Inkscape (http://www.inkscape.org/) -->
<svg xmlns:rdf="http://www.w3.org/1999/02/22-rdf-syntax-ns#" xmlns="http://www.w3.org/2000/svg" xml:space="preserve" height="155.72" width="514.17" version="1.0" xmlns:cc="http://creativecommons.org/ns#" xmlns:dc="http://purl.org/dc/elements/1.1/" viewBox="0 0 564.893 155.72"><metadata><rdf:RDF><cc:Work rdf:about=""><dc:format>image/svg+xml</dc:format><dc:type rdf:resource="http://purl.org/dc/dcmitype/StillImage"/><dc:title/></cc:Work></rdf:RDF></metadata>
<g transform="matrix(1.0987 0 0 1.0987 0 -7.682)">
	<g>
		<path d="m20.591 73.837h-20.591v-25.351h21.173v-6.436c0-31.185 14.18-42.05 42.151-42.05 7.576 0 13.403 1.207 17.87 2.013l-2.136 24.947c-2.913-1.006-5.827-1.61-11.071-1.61-8.935 0-12.432 6.438-12.432 16.7v6.437h24.863v25.351h-24.863v79.467h-34.964z"/>
		<rect height="150.89" width="34.964" y="2.415" x="98.675"/>
		<rect height="26.557" width="34.965" y="4.829" x="163.55"/>
		<rect height="104.82" width="34.965" y="48.486" x="163.55"/>
		<path d="m303.6 78.462c-6.41-4.021-12.82-5.833-21.173-5.833-15.151 0-26.806 10.864-26.806 28.972 0 16.699 13.598 27.561 28.749 27.561 7.965 0 15.93-1.809 21.756-5.029l0.777 26.959c-8.742 3.02-19.23 4.629-28.554 4.629-33.412 0-58.857-20.119-58.857-54.723 0-34.806 25.445-54.924 58.857-54.924 10.49 0 19.812 1.811 27.777 5.834z"/>
		<polygon points="321.48 2.415 356.44 2.415 356.44 92.548 356.83 92.548 385.96 48.486 424.23 48.486 389.07 96.569 427.14 153.3 384.8 153.3 356.83 101.4 356.44 101.4 356.44 153.3 321.48 153.3"/>
		<path d="m512.42 77.456c-3.885-1.205-7.771-1.205-11.848-1.205-16.316 0-25.447 12.271-25.447 32.793v44.26h-34.96v-104.81h31.855v19.31h0.389c6.02-13.279 14.762-21.728 29.914-21.728 4.076 0 8.35 0.603 11.85 1.206z"/>
	</g>
</g></svg>
